<svg width="210" height="94" viewBox="0 0 210 94" fill="none" xmlns="http://www.w3.org/2000/svg">
<rect width="210" height="94" fill="#E5E5E5"/>
<path d="M54.519 71.5967C54.519 74.7764 54.5913 77.2876 54.7358 79.1304C54.9165 80.9731 55.1694 82.3643 55.4946 83.3037C55.856 84.2432 56.3076 84.8394 56.8496 85.0923C57.3916 85.3452 58.0239 85.4717 58.7466 85.4717C59.7222 85.4717 60.7339 85.1646 61.7817 84.5503C62.8296 83.936 63.8594 83.1411 64.8711 82.1655C65.8828 81.1899 66.8403 80.106 67.7437 78.9136C68.6831 77.7212 69.5322 76.5649 70.291 75.4448C71.0859 74.2886 71.7544 73.2227 72.2964 72.2471C72.8745 71.2354 73.3081 70.4585 73.5972 69.9165L75.2773 66.5562L77.4995 68.2363L75.8193 71.5967C75.5303 72.1387 75.0605 73.0239 74.4102 74.2524C73.7598 75.4448 72.9468 76.7817 71.9712 78.2632C70.9956 79.7085 69.8936 81.2261 68.665 82.8159C67.4365 84.3696 66.1177 85.7969 64.7085 87.0977C63.2993 88.3984 61.8179 89.4644 60.2642 90.2954C58.7104 91.1265 57.1206 91.542 55.4946 91.542C54.0132 91.542 52.6943 91.2891 51.5381 90.7832C50.3818 90.2773 49.4062 89.3921 48.6113 88.1274C47.8164 86.8267 47.2021 85.0742 46.7686 82.8701C46.3711 80.6299 46.1724 77.7935 46.1724 74.3608C46.1724 73.0239 46.1904 71.7593 46.2266 70.5669C46.2988 69.3384 46.3892 67.8569 46.4976 66.1226C44.6548 69.6997 42.5229 73.1504 40.1021 76.4746C37.7173 79.7988 35.1519 82.7437 32.4058 85.3091C29.6597 87.8745 26.7871 89.916 23.7881 91.4336C20.8252 92.9873 17.8262 93.7642 14.791 93.7642C12.876 93.7642 11.0513 93.4209 9.31689 92.7344C7.58252 92.0479 6.04688 91 4.70996 89.5908C3.37305 88.1455 2.30713 86.3027 1.51221 84.0625C0.717285 81.8223 0.319824 79.1484 0.319824 76.041C0.319824 71.0547 0.879883 66.1587 2 61.353C3.08398 56.5474 4.60156 51.9043 6.55273 47.4238C8.50391 42.9072 10.7983 38.6074 13.436 34.5244C16.0737 30.4053 18.9102 26.5933 21.9453 23.0884C24.9805 19.5835 28.1602 16.4219 31.4844 13.6035C34.8086 10.749 38.1328 8.31006 41.457 6.28662C44.7812 4.26318 48.0151 2.70947 51.1587 1.62549C54.3384 0.541504 57.3013 -0.000488281 60.0474 -0.000488281C63.0825 -0.000488281 65.5034 0.776367 67.3101 2.33008C69.1167 3.84766 70.02 6.01562 70.02 8.83398C70.02 10.7129 69.6406 12.5557 68.8818 14.3623C68.1592 16.1328 67.1836 17.8491 65.9551 19.5112C64.7627 21.1372 63.3896 22.6909 61.8359 24.1724C60.3184 25.6177 58.7827 26.9365 57.229 28.1289C55.6753 29.2852 54.1577 30.3149 52.6763 31.2183C51.231 32.0854 49.9844 32.772 48.9365 33.2778L47.3105 31.0557C48.2139 30.5859 49.2437 29.9355 50.3999 29.1045C51.5923 28.2734 52.7847 27.2979 53.9771 26.1777C55.1694 25.0576 56.3257 23.8291 57.4458 22.4922C58.6021 21.1191 59.6318 19.6919 60.5352 18.2104C61.4385 16.6929 62.1611 15.1392 62.7031 13.5493C63.2451 11.9233 63.5161 10.3154 63.5161 8.72559C63.5161 7.17187 63.1006 5.88916 62.2695 4.87744C61.4746 3.82959 60.1738 3.30566 58.3672 3.30566C56.2354 3.30566 53.9229 3.86572 51.4297 4.98584C48.9365 6.06982 46.3711 7.62354 43.7334 9.64697C41.0957 11.6704 38.4399 14.0913 35.7661 16.9097C33.1284 19.6919 30.5811 22.7812 28.124 26.1777C25.667 29.5381 23.3726 33.1514 21.2407 37.0176C19.145 40.8477 17.3022 44.8403 15.7124 48.9956C14.1587 53.1147 12.9302 57.3242 12.0269 61.624C11.1235 65.8877 10.6719 70.1333 10.6719 74.3608C10.6719 76.312 10.8164 78.1187 11.1055 79.7808C11.3945 81.4067 11.8643 82.8159 12.5146 84.0083C13.165 85.1646 14.0142 86.0679 15.062 86.7183C16.1099 87.3687 17.4106 87.6938 18.9644 87.6938C20.9155 87.6938 22.8306 87.2603 24.7095 86.3931C26.5884 85.4897 28.4131 84.2793 30.1836 82.7617C31.9541 81.2441 33.6523 79.4736 35.2783 77.4502C36.9404 75.4268 38.4941 73.2588 39.9395 70.9463C41.3848 68.6338 42.7217 66.2671 43.9502 63.8462C45.2148 61.3892 46.335 58.9683 47.3105 56.5835C47.5635 53.8735 47.8525 51.29 48.1777 48.833C48.5029 46.3398 48.8281 44.1177 49.1533 42.1665C49.4785 40.2153 49.7856 38.6074 50.0747 37.3428C50.3638 36.042 50.6167 35.2471 50.8335 34.958C50.978 34.7051 51.2852 34.416 51.7549 34.0908C52.2246 33.7656 52.7485 33.4766 53.3267 33.2236C53.9409 32.9346 54.5552 32.6997 55.1694 32.519C55.7837 32.3022 56.3076 32.1938 56.7412 32.1938C57.8252 32.1938 58.3672 32.7358 58.3672 33.8198C58.3672 34.8315 58.2949 36.0059 58.1504 37.3428C58.0059 38.6797 57.8071 40.0708 57.5542 41.5161C57.3013 42.9614 56.9941 44.4248 56.6328 45.9062C56.3076 47.3516 55.9282 48.6885 55.4946 49.917C55.2056 53.8555 54.9707 57.6494 54.79 61.2988C54.6094 64.9121 54.519 68.3447 54.519 71.5967ZM86.9302 84.1167C87.5806 84.1167 88.3213 83.7012 89.1523 82.8701C90.0195 82.0029 90.9409 80.8286 91.9165 79.3472C92.8921 77.8657 93.9219 76.1313 95.0059 74.144C96.0898 72.1567 97.21 70.0068 98.3662 67.6943L98.9082 66.5562L101.13 68.2363L100.588 69.3745C98.6733 73.2046 96.957 76.4927 95.4395 79.2388C93.958 81.9487 92.5669 84.189 91.2661 85.9595C89.9653 87.6938 88.7188 88.9766 87.5264 89.8076C86.3701 90.6025 85.1777 91 83.9492 91C82.3232 91 80.9141 90.4761 79.7217 89.4282C78.5654 88.3442 77.5898 86.5557 76.7949 84.0625C76.0361 81.5332 75.4761 78.209 75.1147 74.0898C74.7173 69.9707 74.5186 64.876 74.5186 58.8057C74.5186 50.2061 74.8799 42.835 75.6025 36.6924C76.3252 30.5137 77.3008 25.4551 78.5293 21.5166C79.7939 17.542 81.2393 14.6333 82.8652 12.7905C84.5273 10.9116 86.2617 9.97217 88.0684 9.97217C89.1523 9.97217 90.0557 10.4238 90.7783 11.3271C91.5371 12.1943 91.9165 13.7842 91.9165 16.0967C91.9165 17.9033 91.772 19.9629 91.4829 22.2754C91.1938 24.5879 90.8145 27.063 90.3447 29.7007C89.875 32.3384 89.3149 35.0845 88.6646 37.939C88.0142 40.7573 87.3276 43.5757 86.605 46.394C85.8823 49.1763 85.1416 51.9224 84.3828 54.6323C83.624 57.3062 82.8833 59.8174 82.1606 62.166C82.3774 66.6104 82.6123 70.2598 82.8652 73.1143C83.1543 75.9326 83.4795 78.1548 83.8408 79.7808C84.2383 81.4067 84.6899 82.5449 85.1958 83.1953C85.7017 83.8096 86.2798 84.1167 86.9302 84.1167ZM88.3936 17.3975C88.3936 16.6387 88.3032 16.0425 88.1226 15.6089C87.9419 15.1753 87.6528 14.9585 87.2554 14.9585C86.8579 14.9585 86.4604 15.5186 86.063 16.6387C85.6655 17.7588 85.2681 19.2764 84.8706 21.1914C84.5093 23.1064 84.166 25.3286 83.8408 27.8579C83.5518 30.3872 83.2808 33.0791 83.0278 35.9336C82.7749 38.752 82.5762 41.6426 82.4316 44.6055C82.2871 47.5684 82.1968 50.4229 82.1606 53.1689C83.0278 49.9893 83.8228 46.7373 84.5454 43.4131C85.3042 40.0527 85.9727 36.8008 86.5508 33.6572C87.1289 30.5137 87.5806 27.5508 87.9058 24.7686C88.231 21.9502 88.3936 19.4932 88.3936 17.3975ZM144.327 68.2363L143.731 69.3745C142.502 71.8315 140.858 73.8008 138.799 75.2822C136.775 76.7275 134.571 77.667 132.187 78.1006C131.536 79.9434 130.687 81.6597 129.639 83.2495C128.627 84.8032 127.453 86.1582 126.116 87.3145C124.815 88.4707 123.334 89.374 121.672 90.0244C120.046 90.6748 118.275 91 116.36 91C113.578 91 111.067 90.4219 108.827 89.2656C106.623 88.0732 104.744 86.4834 103.19 84.4961C101.636 82.4727 100.444 80.124 99.6128 77.4502C98.7817 74.7402 98.3662 71.8496 98.3662 68.7783C98.3662 66.1045 98.6733 63.6836 99.2876 61.5156C99.9019 59.3115 100.679 57.3604 101.618 55.6621C102.558 53.9277 103.605 52.4282 104.762 51.1636C105.918 49.8628 107.056 48.7969 108.176 47.9658C109.296 47.1348 110.308 46.5205 111.211 46.123C112.151 45.6895 112.855 45.4727 113.325 45.4727L114.03 47.3696C112.548 48.4536 111.229 49.9712 110.073 51.9224C109.062 53.5845 108.14 55.7886 107.309 58.5347C106.514 61.2808 106.117 64.6953 106.117 68.7783C106.117 71.2715 106.352 73.6924 106.821 76.041C107.291 78.3896 107.978 80.4673 108.881 82.2739C109.784 84.0806 110.886 85.5259 112.187 86.6099C113.524 87.6938 115.023 88.2358 116.686 88.2358C118.962 88.2358 120.841 87.3325 122.322 85.5259C123.84 83.6831 124.96 81.1719 125.683 77.9922C123.804 77.5947 122.015 76.854 120.317 75.77C118.619 74.686 117.119 73.3491 115.818 71.7593C114.518 70.1333 113.47 68.2725 112.675 66.1768C111.916 64.0811 111.537 61.8047 111.537 59.3477C111.537 57.3242 111.79 55.5537 112.295 54.0361C112.837 52.4824 113.542 51.1997 114.409 50.188C115.276 49.1401 116.27 48.3633 117.39 47.8574C118.546 47.3154 119.757 47.0444 121.021 47.0444C122.503 47.0444 124.021 47.478 125.574 48.3452C127.128 49.1763 128.537 50.4409 129.802 52.1392C131.066 53.8013 132.096 55.897 132.891 58.4263C133.686 60.9556 134.083 63.9004 134.083 67.2607C134.083 68.5254 134.011 69.772 133.867 71.0005C133.722 72.229 133.505 73.4214 133.216 74.5776C134.951 74.0718 136.522 73.2588 137.932 72.1387C139.377 71.0186 140.569 69.5371 141.509 67.6943L142.105 66.5562L144.327 68.2363ZM115.114 58.9141C115.114 61.0459 115.403 63.0151 115.981 64.8218C116.595 66.5923 117.408 68.1641 118.42 69.5371C119.432 70.874 120.606 71.9941 121.943 72.8975C123.28 73.8008 124.707 74.4331 126.225 74.7944C126.405 73.7827 126.514 72.7349 126.55 71.6509C126.622 70.5308 126.658 69.3926 126.658 68.2363C126.658 65.6709 126.459 63.3584 126.062 61.2988C125.665 59.2031 125.141 57.4326 124.49 55.9873C123.84 54.5059 123.081 53.3677 122.214 52.5728C121.347 51.7778 120.461 51.3804 119.558 51.3804C118.33 51.3804 117.282 52.0488 116.415 53.3857C115.547 54.6865 115.114 56.5293 115.114 58.9141ZM188.012 68.2363L187.47 69.3745C185.952 72.4097 184.507 75.2461 183.134 77.8838C181.761 80.5215 180.388 82.8159 179.015 84.7671C177.642 86.7183 176.232 88.2539 174.787 89.374C173.378 90.458 171.86 91 170.234 91C168.608 91 167.019 90.5664 165.465 89.6992C163.911 88.832 162.357 87.6216 160.804 86.0679C159.286 84.5142 157.75 82.7075 156.197 80.6479C154.679 78.5522 153.107 76.2759 151.481 73.8188L149.584 74.144C149.512 77.3237 149.404 80.1963 149.259 82.7617C149.115 85.291 148.934 87.3687 148.717 88.9946C148.609 89.7173 148.302 90.2412 147.796 90.5664C147.326 90.8555 146.676 91 145.845 91C144.869 91 144.056 90.8735 143.406 90.6206C142.755 90.3677 142.25 90.0605 141.888 89.6992C141.491 89.3018 141.22 88.8862 141.075 88.4526C140.895 87.9829 140.804 87.5312 140.804 87.0977C140.804 84.7852 141.184 81.9126 141.942 78.48V50.459C141.942 43.5215 142.304 37.5234 143.026 32.4648C143.749 27.3701 144.725 23.1606 145.953 19.8364C147.182 16.4761 148.609 14.001 150.235 12.4111C151.897 10.7852 153.649 9.97217 155.492 9.97217C157.479 9.97217 158.889 10.6226 159.72 11.9233C160.587 13.188 161.021 14.9404 161.021 17.1807C161.021 19.1318 160.731 21.6431 160.153 24.7144C159.575 27.7495 158.762 31.0918 157.714 34.7412C156.703 38.3906 155.51 42.2026 154.137 46.1772C152.764 50.1157 151.283 53.9639 149.693 57.7217V58.9141C150.705 57.2881 151.879 55.7344 153.216 54.2529C154.589 52.7715 156.052 51.4707 157.606 50.3506C159.16 49.1943 160.75 48.291 162.375 47.6406C164.038 46.9541 165.664 46.6108 167.253 46.6108C168.663 46.6108 169.945 46.8096 171.102 47.207C172.294 47.6045 173.324 48.1826 174.191 48.9414C175.058 49.7002 175.727 50.6577 176.196 51.814C176.666 52.9341 176.901 54.2349 176.901 55.7163C176.901 57.2339 176.558 58.7515 175.871 60.269C175.221 61.7866 174.173 63.25 172.728 64.6592C171.318 66.0684 169.494 67.4053 167.253 68.6699C165.013 69.8984 162.303 70.9824 159.124 71.9219C159.34 72.2471 159.702 72.7891 160.208 73.5479C160.713 74.3066 161.31 75.1738 161.996 76.1494C162.719 77.0889 163.496 78.0825 164.327 79.1304C165.158 80.1421 166.007 81.0815 166.874 81.9487C167.777 82.7798 168.663 83.4844 169.53 84.0625C170.397 84.6045 171.192 84.8755 171.915 84.8755C172.89 84.8755 173.884 84.478 174.896 83.6831C175.907 82.8521 176.955 81.6958 178.039 80.2144C179.159 78.6968 180.315 76.8901 181.508 74.7944C182.7 72.6626 183.947 70.2959 185.248 67.6943L185.79 66.5562L188.012 68.2363ZM149.693 63.5752C149.693 64.4062 149.675 65.147 149.639 65.7974C149.639 66.4116 149.639 67.0259 149.639 67.6401C149.639 68.2183 149.621 68.8145 149.584 69.4287C149.584 70.043 149.584 70.7295 149.584 71.4883C153.27 70.9463 156.377 70.2236 158.907 69.3203C161.472 68.417 163.55 67.3691 165.14 66.1768C166.729 64.9844 167.886 63.6836 168.608 62.2744C169.331 60.8291 169.692 59.3115 169.692 57.7217C169.692 56.8906 169.548 56.0957 169.259 55.3369C169.006 54.542 168.626 53.8555 168.121 53.2773C167.615 52.6631 166.982 52.1753 166.224 51.814C165.501 51.4526 164.688 51.272 163.785 51.272C162.52 51.272 161.237 51.6152 159.937 52.3018C158.672 52.9521 157.407 53.8374 156.143 54.9575C154.914 56.0776 153.74 57.3965 152.62 58.9141C151.536 60.3955 150.56 61.9492 149.693 63.5752ZM154.462 12.7363C153.704 12.7363 153.035 13.4771 152.457 14.9585C151.915 16.4399 151.445 18.7524 151.048 21.896C150.65 25.0034 150.325 28.978 150.072 33.8198C149.819 38.6255 149.621 44.3706 149.476 51.0552C150.994 47.0444 152.222 43.2866 153.162 39.7817C154.101 36.2407 154.824 33.061 155.33 30.2427C155.872 27.3882 156.233 24.9131 156.414 22.8174C156.594 20.6855 156.685 18.9873 156.685 17.7227C156.685 15.8076 156.504 14.5068 156.143 13.8203C155.817 13.0977 155.257 12.7363 154.462 12.7363ZM190.288 86.0137C190.288 85.3271 190.415 84.6768 190.667 84.0625C190.92 83.4482 191.264 82.9243 191.697 82.4907C192.167 82.021 192.709 81.6597 193.323 81.4067C193.938 81.1538 194.588 81.0273 195.274 81.0273C195.961 81.0273 196.611 81.1538 197.226 81.4067C197.84 81.6597 198.364 82.021 198.797 82.4907C199.267 82.9243 199.628 83.4482 199.881 84.0625C200.134 84.6768 200.261 85.3271 200.261 86.0137C200.261 86.7002 200.134 87.3506 199.881 87.9648C199.628 88.5791 199.267 89.1211 198.797 89.5908C198.364 90.0244 197.84 90.3677 197.226 90.6206C196.611 90.8735 195.961 91 195.274 91C194.588 91 193.938 90.8735 193.323 90.6206C192.709 90.3677 192.167 90.0244 191.697 89.5908C191.264 89.1211 190.92 88.5791 190.667 87.9648C190.415 87.3506 190.288 86.7002 190.288 86.0137ZM207.825 90.4316C207.825 90.2441 207.88 90.0879 207.989 89.9629C208.103 89.8379 208.271 89.7754 208.493 89.7754C208.716 89.7754 208.884 89.8379 208.997 89.9629C209.114 90.0879 209.173 90.2441 209.173 90.4316C209.173 90.6113 209.114 90.7617 208.997 90.8828C208.884 91.0039 208.716 91.0645 208.493 91.0645C208.271 91.0645 208.103 91.0039 207.989 90.8828C207.88 90.7617 207.825 90.6113 207.825 90.4316Z" fill="#494949"/>
</svg>
