<svg width="500" height="300" viewBox="0 0 500 300" fill="none" xmlns="http://www.w3.org/2000/svg">
<rect width="500" height="300" fill="#E5E5E5"/>
<g id="coding 1">
<g id="smoke">
<path id="Vector" d="M400.34 220.257C399.161 211.584 398.849 202.796 399.411 194.049L400.34 179.572C395.219 190.696 396.376 205.336 400.34 220.257V220.257Z" fill="#CACACA"/>
<path id="Vector_2" d="M404.334 222.679C403.766 217.503 403.617 212.283 403.887 207.079L404.334 198.462C401.87 205.083 402.427 213.797 404.334 222.679Z" fill="#CACACA"/>
</g>
<g id="person">
<path id="Vector_3" d="M418.132 240.649H388.401V242.102H418.132V240.649Z" fill="#E6E6E6"/>
<path id="Vector_4" d="M418.093 262.03C408.144 266.524 398.086 266.574 387.917 262.03V251.794C397.707 248.205 408.303 248.205 418.093 251.794V262.03Z" fill="#E6E6E6"/>
<path id="Vector_5" d="M337.932 174.491C336.549 165.411 335.123 156.156 331.256 147.976C328.715 142.618 324.682 137.512 319.244 136.453C318.173 136.349 317.12 136.083 316.116 135.663C314.522 134.825 293.111 121.484 289.708 119.161C286.786 117.166 282.173 113.472 279.848 113.472C277.508 113.416 268.536 115.695 233.518 112.708C233.518 112.708 223.898 116.846 216.454 121.865C216.341 121.783 180.108 143.02 178.747 142.964C176.169 142.846 173.773 144.647 172.295 146.916C170.818 149.184 170.124 151.993 169.399 154.708C177.313 173.944 184.554 193.205 192.468 212.441C192.839 213.166 193.036 213.98 193.041 214.81C192.881 215.671 192.545 216.482 192.056 217.179C188.175 223.984 188.298 232.543 188.722 240.542C189.146 248.54 189.671 256.988 186.396 264.157C185.506 266.125 184.347 267.926 183.5 269.894C181.516 274.352 180.799 288.609 181.958 293.399L327.139 297.938C324.017 288.573 337.932 174.491 337.932 174.491Z" fill="#6C63FF"/>
<path id="Path 1421" d="M156.849 213.294C156.56 215.581 156.531 217.899 156.763 220.194L158.843 252.81C159.039 255.884 159.231 258.951 159.495 262.017C159.995 267.969 160.741 273.872 161.666 279.768C161.687 280.605 162.011 281.398 162.568 281.975C163.124 282.551 163.868 282.863 164.635 282.842C173.794 284.957 183.258 284.873 192.606 284.296C206.871 283.427 243.366 281.783 245.595 278.622C247.825 275.461 246.526 270.347 243.618 267.791C240.711 265.235 192.551 259.002 192.551 259.002C193.022 254.932 194.441 251.099 195.788 247.235C198.207 240.381 200.466 233.302 200.509 225.959C200.553 218.617 198.018 210.897 192.508 206.691C187.975 203.238 182.139 202.597 176.615 202.74C172.596 202.866 165.652 201.815 161.981 203.53C159.076 204.926 157.392 210.189 156.849 213.294Z" fill="#FBBEBE"/>
<path id="Path 1430" d="M168.98 155.294C168.275 156.1 167.728 157.055 167.373 158.1C161.52 172.497 158.063 187.917 157.163 203.637C157.179 204.404 157.017 205.162 156.693 205.843C156.373 206.295 156.017 206.715 155.628 207.099C155.29 207.537 155.034 208.043 154.875 208.589C154.716 209.135 154.656 209.71 154.701 210.281C154.745 210.852 154.892 211.408 155.133 211.917C155.375 212.425 155.705 212.878 156.106 213.247C156.172 213.308 156.24 213.366 156.309 213.422C157.504 210.968 160.364 210.166 162.906 209.952C175.077 208.901 186.967 215.082 199.175 214.616C198.314 211.367 197.075 208.246 196.372 204.958C193.266 190.361 201.014 174.468 196.264 160.408C195.315 157.594 193.73 154.828 191.232 153.595C190.197 153.14 189.115 152.827 188.01 152.665C184.925 152.056 178.784 149.456 175.802 150.499C174.701 150.887 174.267 152.017 173.354 152.699C171.968 153.666 170.129 154.021 168.98 155.294Z" fill="#6C63FF"/>
<path id="Path 1421_2" d="M338.019 203.53C334.348 201.815 327.404 202.866 323.385 202.74C317.861 202.597 312.025 203.238 307.492 206.691C301.982 210.898 299.447 218.617 299.491 225.959C299.534 233.302 301.793 240.381 304.212 247.235C305.559 251.099 306.978 254.932 307.449 259.002C307.449 259.002 259.289 265.235 256.381 267.791C253.474 270.347 252.175 275.461 254.405 278.622C256.634 281.783 326.206 284.957 335.365 282.842C336.132 282.863 336.876 282.551 337.432 281.975C337.989 281.398 338.313 280.605 338.334 279.768C339.259 273.872 340.005 267.969 340.505 262.017C340.769 258.951 340.961 255.884 341.157 252.81L343.237 220.194C343.469 217.899 343.44 215.581 343.151 213.294C342.608 210.189 340.924 204.926 338.019 203.53Z" fill="#FBBEBE"/>
<path id="Path 1430_2" d="M326.646 152.699C325.733 152.016 325.299 150.887 324.198 150.499C321.216 149.456 315.075 152.056 311.99 152.665C310.885 152.827 309.803 153.14 308.768 153.595C306.27 154.828 304.685 157.594 303.736 160.408C298.986 174.468 306.734 190.361 303.628 204.958C302.925 208.246 301.686 211.367 300.825 214.616C313.033 215.082 324.923 208.901 337.094 209.952C339.636 210.166 342.496 210.968 343.691 213.422C343.76 213.366 343.828 213.308 343.894 213.247C344.295 212.878 344.625 212.425 344.867 211.917C345.108 211.408 345.255 210.852 345.299 210.281C345.344 209.71 345.284 209.135 345.125 208.589C344.966 208.043 344.71 207.537 344.372 207.099C343.983 206.715 343.627 206.295 343.307 205.842C342.983 205.162 342.821 204.404 342.837 203.637C341.937 187.917 338.48 172.497 332.627 158.1C332.272 157.055 331.725 156.1 331.02 155.294C329.871 154.021 328.032 153.666 326.646 152.699Z" fill="#6C63FF"/>
<path id="Vector_6" d="M239.534 284.399C245.528 284.399 250.388 279.096 250.388 272.553C250.388 266.01 245.528 260.707 239.534 260.707C233.54 260.707 228.68 266.01 228.68 272.553C228.68 279.096 233.54 284.399 239.534 284.399Z" fill="#FBBEBE"/>
<path id="Vector_7" d="M263.567 284.399C269.561 284.399 274.421 279.096 274.421 272.553C274.421 266.01 269.561 260.707 263.567 260.707C257.573 260.707 252.713 266.01 252.713 272.553C252.713 279.096 257.573 284.399 263.567 284.399Z" fill="#FBBEBE"/>
<path id="Vector_8" d="M330.564 299.247H181.451C179.71 299.245 178.041 298.489 176.81 297.146C175.579 295.802 174.886 293.981 174.884 292.08V193.343C174.886 191.443 175.579 189.622 176.81 188.278C178.041 186.934 179.71 186.179 181.451 186.177H330.564C332.305 186.179 333.974 186.934 335.205 188.278C336.436 189.622 337.129 191.443 337.131 193.343V292.08C337.129 293.981 336.436 295.802 335.205 297.146C333.974 298.489 332.305 299.245 330.564 299.247Z" fill="#3F3D56"/>
</g>
<g id="laptopicon">
<path id="Ellipse 263" d="M255.646 247.454C258.045 247.454 259.99 245.331 259.99 242.712C259.99 240.093 258.045 237.97 255.646 237.97C253.246 237.97 251.301 240.093 251.301 242.712C251.301 245.331 253.246 247.454 255.646 247.454Z" fill="white"/>
</g>
<g id="table">
<path id="Vector_9" d="M76.273 256.338C65.17 265.371 62.0233 281.266 62.0233 281.266C62.0233 281.266 76.8781 282.514 87.9811 273.48C99.0841 264.446 102.231 248.552 102.231 248.552C102.231 248.552 87.376 247.304 76.273 256.338Z" fill="#F1F1F1"/>
<path id="Vector_10" d="M80.898 260.579C75.5619 274.527 62.1975 281.714 62.1975 281.714C62.1975 281.714 57.4848 266.288 62.821 252.34C68.1572 238.392 81.5215 231.204 81.5215 231.204C81.5215 231.204 86.2342 246.631 80.898 260.579Z" fill="#F1F1F1"/>
<path id="Vector_11" d="M422.086 233.336V238.179C422.085 238.564 421.944 238.932 421.694 239.204C421.445 239.476 421.108 239.63 420.755 239.632H418.536C418.478 239.632 418.42 239.644 418.366 239.668C418.312 239.693 418.263 239.728 418.222 239.773C418.181 239.818 418.148 239.872 418.126 239.931C418.104 239.99 418.092 240.053 418.093 240.116V279.832C418.091 280.217 417.95 280.586 417.701 280.858C417.451 281.13 417.114 281.283 416.761 281.285H389.692C389.339 281.285 389.001 281.132 388.751 280.86C388.502 280.587 388.361 280.218 388.361 279.832V240.116C388.361 239.988 388.314 239.865 388.231 239.774C388.148 239.684 388.035 239.632 387.917 239.632H385.255C384.902 239.632 384.563 239.479 384.314 239.206C384.064 238.934 383.924 238.564 383.924 238.179V233.336C383.923 233.145 383.958 232.956 384.024 232.779C384.091 232.603 384.189 232.442 384.313 232.308C384.437 232.173 384.584 232.066 384.745 231.993C384.907 231.92 385.08 231.882 385.255 231.883H420.755C421.108 231.884 421.446 232.037 421.695 232.309C421.945 232.582 422.085 232.951 422.086 233.336Z" fill="#F2F2F2"/>
<path id="Vector_12" d="M500 279.332H0V296.102H29.5744V300H470.437V296.102H500V279.332Z" fill="#F1F1F1"/>
</g>
<g id="face">
<path id="Ellipse 276" d="M251.444 105.513C273.653 105.513 291.658 85.8623 291.658 61.6215C291.658 37.3807 273.653 17.7297 251.444 17.7297C229.235 17.7297 211.23 37.3807 211.23 61.6215C211.23 85.8623 229.235 105.513 251.444 105.513Z" fill="#FEB8B8"/>
<path id="Path 1461" d="M289.004 23.7553C282.992 13.0993 273.581 5.2473 262.582 1.71078L257.645 5.64295V0.537143C255.004 0.0958936 252.33 -0.0740883 249.66 0.0294328L245.401 4.23577V0.378897C239.094 1.23423 233.019 3.50644 227.557 7.05226C222.096 10.5981 217.366 15.3406 213.668 20.9807C204.418 35.5349 202.857 55.783 211.954 70.4539C214.451 62.0768 217.483 54.2167 219.981 45.8404C221.943 46.1324 223.933 46.143 225.898 45.8717L228.936 38.1335L229.785 45.5443C239.203 44.649 253.172 42.6825 262.1 40.881L261.232 35.1956L266.426 39.9198C269.161 39.2327 270.785 38.6091 270.651 38.1327C277.291 49.8166 285.418 57.2791 292.057 68.963C294.579 52.488 297.481 38.7892 289.004 23.7553Z" fill="#2F2E41"/>
<path id="Vector_13" d="M214.465 77.9809C208.003 77.9809 202.765 71.7993 202.765 64.1738V57.2702C202.765 49.6447 208.003 43.4631 214.465 43.4631V77.9809H214.465Z" fill="#6C63FF"/>
<path id="Vector_14" d="M289.14 43.4631C295.602 43.4631 300.84 49.6448 300.84 57.2702V64.1738C300.84 71.7993 295.602 77.9809 289.14 77.9809V43.4631Z" fill="#6C63FF"/>
<path id="Vector_15" d="M295.271 58.355H293.415C293.415 30.5724 274.262 7.96953 250.72 7.96953C227.178 7.96953 208.025 30.5724 208.025 58.355H206.168C206.168 29.3644 226.154 5.77887 250.72 5.77887C275.285 5.77888 295.271 29.3644 295.271 58.355Z" fill="#6C63FF"/>
</g>
</g>
</svg>
