<svg width="300" height="250" viewBox="0 0 300 250" fill="none" xmlns="http://www.w3.org/2000/svg">
<rect width="300" height="250" fill="#E5E5E5"/>
<g id="coding 1">
<g id="person">
<path id="Vector" d="M258 212.397H238.589V213.314H258V212.397Z" fill="#E6E6E6"/>
<path id="Vector_2" d="M257.974 225.889C251.478 228.724 244.912 228.756 238.273 225.889V219.43C244.664 217.165 251.582 217.165 257.974 219.43V225.889Z" fill="#E6E6E6"/>
<path id="Vector_3" d="M205.638 170.652C204.736 164.922 203.804 159.083 201.28 153.921C199.621 150.54 196.987 147.318 193.437 146.65C192.738 146.584 192.05 146.416 191.395 146.151C190.355 145.623 176.375 137.205 174.153 135.738C172.246 134.48 169.234 132.149 167.716 132.149C166.188 132.114 160.331 133.552 137.468 131.667C137.468 131.667 131.187 134.278 126.327 137.445C126.253 137.394 102.597 150.794 101.709 150.759C100.026 150.684 98.4612 151.821 97.4963 153.252C96.5317 154.683 96.0792 156.456 95.6054 158.169C100.772 170.307 105.5 182.46 110.667 194.598C110.909 195.055 111.038 195.57 111.041 196.093C110.937 196.637 110.717 197.148 110.398 197.588C107.864 201.882 107.944 207.283 108.221 212.33C108.498 217.376 108.841 222.707 106.703 227.231C106.121 228.473 105.365 229.609 104.812 230.851C103.517 233.664 103.048 242.66 103.805 245.682L198.591 248.547C196.553 242.637 205.638 170.652 205.638 170.652Z" fill="#6C63FF"/>
<path id="Path 1421" d="M87.4121 195.136C87.223 196.58 87.2039 198.042 87.3554 199.49L88.714 220.071C88.8415 222.011 88.967 223.946 89.1396 225.881C89.4656 229.636 89.9525 233.361 90.5569 237.081C90.5705 237.609 90.7823 238.11 91.1456 238.474C91.509 238.837 91.9942 239.034 92.495 239.021C98.4752 240.356 104.654 240.302 110.757 239.939C120.07 239.39 143.897 238.353 145.353 236.358C146.809 234.363 145.96 231.137 144.062 229.524C142.164 227.911 110.721 223.978 110.721 223.978C111.028 221.41 111.955 218.991 112.834 216.553C114.414 212.228 115.889 207.761 115.917 203.128C115.945 198.495 114.291 193.624 110.693 190.97C107.733 188.791 103.923 188.387 100.317 188.477C97.6927 188.556 93.159 187.893 90.7623 188.975C88.8658 189.856 87.7664 193.177 87.4121 195.136Z" fill="#FBBEBE"/>
<path id="Path 1430" d="M95.332 158.538C94.8715 159.047 94.5145 159.65 94.2827 160.309C90.4614 169.394 88.2043 179.124 87.6171 189.043C87.6274 189.527 87.5218 190.005 87.3099 190.435C87.101 190.72 86.8684 190.985 86.6149 191.227C86.394 191.504 86.2267 191.823 86.1228 192.168C86.0189 192.512 85.9804 192.875 86.0093 193.235C86.0383 193.596 86.1343 193.946 86.2917 194.267C86.4492 194.588 86.6651 194.874 86.927 195.107C86.97 195.145 87.0141 195.182 87.0593 195.217C87.8393 193.669 89.7065 193.162 91.3662 193.028C99.3129 192.365 107.075 196.265 115.046 195.97C114.483 193.921 113.675 191.951 113.216 189.877C111.188 180.666 116.246 170.637 113.145 161.766C112.526 159.99 111.491 158.245 109.86 157.467C109.184 157.179 108.478 156.982 107.756 156.879C105.742 156.496 101.733 154.855 99.7857 155.513C99.0669 155.758 98.7835 156.47 98.1877 156.901C97.2827 157.511 96.0821 157.735 95.332 158.538Z" fill="#6C63FF"/>
<path id="Path 1421_2" d="M205.695 188.975C203.298 187.893 198.765 188.556 196.141 188.477C192.534 188.387 188.724 188.791 185.765 190.97C182.167 193.624 180.512 198.495 180.541 203.128C180.569 207.761 182.044 212.228 183.623 216.553C184.502 218.991 185.429 221.41 185.736 223.978C185.736 223.978 154.293 227.911 152.395 229.524C150.497 231.137 149.649 234.363 151.104 236.358C152.56 238.353 197.982 240.356 203.962 239.021C204.463 239.034 204.948 238.837 205.312 238.474C205.675 238.11 205.887 237.609 205.901 237.081C206.505 233.361 206.992 229.636 207.318 225.881C207.49 223.946 207.616 222.011 207.743 220.071L209.102 199.49C209.253 198.042 209.234 196.58 209.045 195.136C208.691 193.177 207.592 189.856 205.695 188.975Z" fill="#FBBEBE"/>
<path id="Path 1430_2" d="M198.27 156.901C197.674 156.47 197.391 155.758 196.672 155.513C194.725 154.855 190.715 156.496 188.701 156.879C187.98 156.982 187.273 157.179 186.598 157.467C184.967 158.245 183.932 159.99 183.312 161.765C180.211 170.637 185.27 180.666 183.241 189.877C182.783 191.951 181.974 193.921 181.412 195.97C189.382 196.265 197.145 192.365 205.091 193.028C206.751 193.162 208.618 193.669 209.398 195.217C209.443 195.182 209.487 195.145 209.53 195.107C209.792 194.874 210.008 194.588 210.166 194.267C210.323 193.946 210.419 193.595 210.448 193.235C210.477 192.875 210.439 192.512 210.335 192.168C210.231 191.823 210.064 191.504 209.843 191.227C209.589 190.985 209.357 190.72 209.148 190.435C208.936 190.005 208.83 189.527 208.84 189.043C208.253 179.124 205.996 169.394 202.175 160.309C201.943 159.65 201.586 159.047 201.126 158.538C200.375 157.735 199.175 157.511 198.27 156.901Z" fill="#6C63FF"/>
<path id="Vector_4" d="M141.396 240.004C145.309 240.004 148.482 236.657 148.482 232.529C148.482 228.4 145.309 225.054 141.396 225.054C137.482 225.054 134.309 228.4 134.309 232.529C134.309 236.657 137.482 240.004 141.396 240.004Z" fill="#FBBEBE"/>
<path id="Vector_5" d="M157.087 240.004C161 240.004 164.173 236.657 164.173 232.529C164.173 228.4 161 225.054 157.087 225.054C153.173 225.054 150 228.4 150 232.529C150 236.657 153.173 240.004 157.087 240.004Z" fill="#FBBEBE"/>
<path id="Vector_6" d="M200.828 249.373H103.474C102.337 249.371 101.248 248.895 100.444 248.047C99.6403 247.199 99.1882 246.049 99.1868 244.85V182.548C99.1882 181.349 99.6403 180.199 100.444 179.351C101.248 178.504 102.337 178.027 103.474 178.025H200.828C201.965 178.027 203.054 178.504 203.858 179.351C204.662 180.199 205.114 181.349 205.115 182.548V244.85C205.114 246.049 204.662 247.199 203.858 248.047C203.054 248.895 201.965 249.371 200.828 249.373Z" fill="#3F3D56"/>
</g>
<g id="laptopicon">
<path id="Ellipse 263" d="M153.388 206.212C154.827 206.212 155.994 204.442 155.994 202.26C155.994 200.078 154.827 198.308 153.388 198.308C151.948 198.308 150.781 200.078 150.781 202.26C150.781 204.442 151.948 206.212 153.388 206.212Z" fill="white"/>
</g>
<g id="face">
<path id="Ellipse 276" d="M151.163 131.261C165.837 131.261 177.733 119.231 177.733 104.391C177.733 89.5509 165.837 77.5206 151.163 77.5206C136.489 77.5206 124.593 89.5509 124.593 104.391C124.593 119.231 136.489 131.261 151.163 131.261Z" fill="#FEB8B8"/>
<path id="Path 1461" d="M175.98 81.2095C172.007 74.6859 165.789 69.879 158.522 67.714L155.261 70.1212V66.9955C153.515 66.7253 151.749 66.6213 149.984 66.6847L147.17 69.2597V66.8986C143.004 67.4222 138.989 68.8133 135.381 70.984C131.772 73.1547 128.647 76.058 126.204 79.5109C120.092 88.4208 119.06 100.817 125.071 109.798C126.721 104.67 128.724 99.8577 130.375 94.7298C131.672 94.9086 132.986 94.915 134.285 94.749L136.292 90.0117L136.853 94.5485C143.075 94.0004 152.305 92.7966 158.204 91.6937L157.63 88.2131L161.062 91.1052C162.869 90.6846 163.942 90.3028 163.854 90.0112C168.241 97.164 173.61 101.732 177.997 108.885C179.663 98.7994 181.581 90.4131 175.98 81.2095Z" fill="#2F2E41"/>
<path id="Vector_7" d="M126.73 114.406C122.461 114.406 119 110.622 119 105.953V101.727C119 97.0588 122.461 93.2744 126.73 93.2744V114.406H126.73Z" fill="#6C63FF"/>
<path id="Vector_8" d="M176.07 93.2744C180.339 93.2744 183.8 97.0588 183.8 101.727V105.953C183.8 110.622 180.339 114.406 176.07 114.406V93.2744Z" fill="#6C63FF"/>
<path id="Vector_9" d="M180.121 102.391H178.894C178.894 85.3828 166.239 71.5455 150.685 71.5455C135.13 71.5455 122.475 85.3828 122.475 102.391H121.249C121.249 84.6433 134.454 70.2044 150.685 70.2044C166.916 70.2044 180.121 84.6433 180.121 102.391Z" fill="#6C63FF"/>
</g>
</g>
</svg>
